# xmcd CD database file
#
# Track frame offsets:
#	150
#	12510
#	31211
#	53277
#	66760
#	79508
#
# Disc length: 1368 seconds
#
# Revision: 0
# Processed by: cddbd v1.5.2PL0 Copyright (c) Steve Scherf et al.
# Submitted via: CDex 1.51
#
DISCID=3a055606
DTITLE=The Knew - Boom Bust
DYEAR=2008
DGENRE=Country
TTITLE0=By Yourself
TTITLE1=Renaissance Man
TTITLE2=Coldblack
TTITLE3=Hey Lets Live Together
TTITLE4=Smooth
TTITLE5=Revolver
EXTD=YEAR: 2008
EXTT0=
EXTT1=
EXTT2=
EXTT3=
EXTT4=
EXTT5=
PLAYORDER=
